<svg width="36" height="36" viewBox="0 0 36 36" fill="none" xmlns="http://www.w3.org/2000/svg">
<path d="M16.3561 21.39C14.7279 21.39 13.1001 20.77 11.8606 19.5305C9.382 17.052 9.382 13.0184 11.8606 10.5398C14.3395 8.06126 18.3731 8.06087 20.8517 10.5398C23.3306 13.0184 23.3306 17.052 20.8517 19.5305C19.6122 20.77 17.984 21.39 16.3561 21.39ZM16.3557 9.46814C14.9296 9.46814 13.503 10.0109 12.4171 11.0968C10.2454 13.2685 10.2454 16.8019 12.4171 18.9736C14.5889 21.1454 18.1226 21.1454 20.2944 18.9736C22.4661 16.8019 22.4661 13.2685 20.2944 11.0968C19.2085 10.0113 17.7823 9.46814 16.3557 9.46814Z" fill="#331B3B"/>
<path d="M29.272 25.8646L24.0371 20.6294C23.559 20.1513 22.8335 20.0764 22.2707 20.3935L21.1155 19.2383C23.3195 16.7444 23.236 12.9247 20.8512 10.5402C18.373 8.06126 14.3391 8.06166 11.8601 10.5402C9.38152 13.0188 9.38152 17.0524 11.8601 19.5309C13.0996 20.77 14.7274 21.3904 16.3556 21.3904C17.8602 21.3904 19.3608 20.8539 20.5585 19.7956L21.7137 20.9508C21.3967 21.5136 21.4711 22.2387 21.9497 22.7173L27.1849 27.9521C27.4626 28.2302 27.8332 28.3834 28.2282 28.3834C28.6233 28.3834 28.9939 28.2302 29.2716 27.9521C29.5496 27.674 29.7029 27.3034 29.7029 26.9084C29.7029 26.5133 29.55 26.1423 29.272 25.8646ZM12.4174 18.974C10.2457 16.8023 10.2457 13.2689 12.4174 11.0972C13.5033 10.0113 14.9295 9.46853 16.356 9.46853C17.7826 9.46853 19.2088 10.0113 20.2947 11.0972C22.4664 13.2689 22.4664 16.8023 20.2947 18.974C18.1229 21.1458 14.5888 21.1454 12.4174 18.974ZM28.715 27.3952C28.4567 27.6536 28.0006 27.6536 27.7418 27.3952L22.5066 22.16C22.2384 21.8913 22.2384 21.455 22.5066 21.1863C22.6409 21.0524 22.817 20.9851 22.9934 20.9851C23.1695 20.9851 23.3459 21.052 23.4798 21.1863L28.7147 26.4216C28.8438 26.5507 28.9151 26.7236 28.9151 26.908C28.9151 27.0923 28.8442 27.2656 28.715 27.3952Z" fill="#331B3B"/>
<path d="M12.2343 17.2985C12.1149 17.2985 11.9972 17.2445 11.92 17.1425C11.7888 16.9692 11.8227 16.7219 11.9964 16.5907L17.6802 12.289C17.7692 12.222 17.8819 12.1952 17.9914 12.2161C18.1005 12.237 18.1962 12.3028 18.2541 12.3977L20.0143 15.2827L20.6066 14.8573C20.7823 14.7297 21.0288 14.7707 21.1565 14.9475C21.2833 15.1244 21.2431 15.3702 21.0663 15.4974L20.1293 16.1705C20.0402 16.2343 19.928 16.2591 19.8217 16.2367C19.7141 16.215 19.6204 16.1492 19.5637 16.0559L17.809 13.1799L12.4722 17.2186C12.4005 17.2725 12.317 17.2985 12.2343 17.2985Z" fill="#331B3B"/>
<path d="M26.5795 21.863C26.7974 21.863 26.9734 21.6869 26.9734 21.4691V2.24038C26.9734 1.15725 26.0923 0.276184 25.0092 0.276184H8.26061C7.17749 0.276184 6.29681 1.15725 6.29681 2.24038V33.76C6.29681 34.8427 7.17788 35.7238 8.26061 35.7238H25.0088C26.0919 35.7238 26.973 34.8427 26.973 33.76V28.975C26.973 28.7572 26.797 28.5811 26.5792 28.5811C26.3613 28.5811 26.1853 28.7572 26.1853 28.975V29.9931H7.08454V18.3108L8.10464 19.9803C8.16254 20.0753 8.25825 20.141 8.36735 20.1619C8.39177 20.1666 8.41619 20.169 8.44061 20.169C8.52568 20.169 8.60918 20.1414 8.6785 20.0894L9.92704 19.145C10.1003 19.0134 10.1346 18.7665 10.0035 18.5932C9.8719 18.4199 9.62495 18.3856 9.45165 18.5167L8.5501 19.1989L7.08454 16.8003V4.79457H26.1857V10.8498L23.3479 12.8888C23.1711 13.0157 23.1305 13.2618 23.2577 13.4387C23.3345 13.5458 23.4554 13.6029 23.5779 13.6029C23.6575 13.6029 23.7378 13.5789 23.8072 13.5289L26.1857 11.8199V21.4695C26.1857 21.6865 26.3617 21.863 26.5795 21.863ZM26.1857 30.7808V33.7596C26.1857 34.4079 25.6579 34.9357 25.0092 34.9357H8.26061C7.61231 34.9357 7.08454 34.4079 7.08454 33.7596V30.7808H26.1857ZM7.08454 4.00685V2.24038C7.08454 1.59168 7.61231 1.06391 8.26061 1.06391H25.0088C25.6575 1.06391 26.1853 1.59168 26.1853 2.24038V4.00685H7.08454Z" fill="#331B3B"/>
<path d="M16.6349 34.278C15.8638 34.278 15.2363 33.6505 15.2363 32.8793C15.2363 32.1082 15.8638 31.4803 16.6349 31.4803C17.4061 31.4803 18.0335 32.1082 18.0335 32.8793C18.0335 33.6505 17.4061 34.278 16.6349 34.278ZM16.6349 32.2685C16.2982 32.2685 16.0241 32.5426 16.0241 32.8797C16.0241 33.2169 16.2982 33.4906 16.6349 33.4906C16.9717 33.4906 17.2458 33.2169 17.2458 32.8797C17.2458 32.5426 16.9721 32.2685 16.6349 32.2685Z" fill="#331B3B"/>
<path d="M19.032 2.90244H14.2379C14.0204 2.90244 13.844 2.72599 13.844 2.50858C13.844 2.29117 14.0204 2.11472 14.2379 2.11472H19.032C19.2498 2.11472 19.4258 2.29117 19.4258 2.50858C19.4258 2.72599 19.2498 2.90244 19.032 2.90244Z" fill="#331B3B"/>
</svg>
